HIERARCHY
ROOT hip
{
  OFFSET 0 0 0
  CHANNELS 6 Xposition Yposition Zposition Zrotation Yrotation Xrotation
  JOINT abdomen
  {
    OFFSET 0 20.6881 -0.73152
    CHANNELS 3 Zrotation Xrotation Yrotation
    JOINT chest
    {
      OFFSET 0 11.7043 -0.48768
      CHANNELS 3 Zrotation Xrotation Yrotation
      JOINT neck
      {
        OFFSET 0 22.1894 -2.19456
        CHANNELS 3 Zrotation Xrotation Yrotation
        JOINT head
        {
          OFFSET -0.24384 7.07133 1.2192
          CHANNELS 3 Zrotation Xrotation Yrotation
          JOINT leftEye
          {
            OFFSET 4.14528 8.04674 8.04672
            CHANNELS 3 Zrotation Xrotation Yrotation
            End Site
            {
              OFFSET 1 0 0
            }
          }
          JOINT rightEye
          {
            OFFSET -3.6576 8.04674 8.04672
            CHANNELS 3 Zrotation Xrotation Yrotation
            End Site
            {
              OFFSET 1 0 0
            }
          }
        }
      }
      JOINT rCollar
      {
        OFFSET -2.68224 19.2634 -4.8768
        CHANNELS 3 Zrotation Xrotation Yrotation
        JOINT rShldr
        {
          OFFSET -8.77824 -1.95073 1.46304
          CHANNELS 3 Zrotation Xrotation Yrotation
          JOINT rForeArm
          {
            OFFSET -28.1742 -1.7115 0.48768
            CHANNELS 3 Zrotation Xrotation Yrotation
            JOINT rHand
            {
              OFFSET -22.5879 0.773209 7.07136
              CHANNELS 3 Zrotation Xrotation Yrotation
              JOINT rThumb1
              {
                OFFSET -1.2192 -0.487915 3.41376
                CHANNELS 3 Zrotation Xrotation Yrotation
                JOINT rThumb2
                {
                  OFFSET -3.37035 -0.52449 3.41376
                  CHANNELS 3 Zrotation Xrotation Yrotation
                  End Site
                  {
                    OFFSET -1.78271 -1.18214 1.43049
                  }
                }
              }
              JOINT rIndex1
              {
                OFFSET -7.75947 0.938293 5.60832
                CHANNELS 3 Zrotation Xrotation Yrotation
                JOINT rIndex2
                {
                  OFFSET -2.54057 -0.884171 1.56538
                  CHANNELS 3 Zrotation Xrotation Yrotation
                  End Site
                  {
                    OFFSET -1.62519 -0.234802 1.16502
                  }
                }
              }
              JOINT rMid1
              {
                OFFSET -8.24714 1.18213 3.41376
                CHANNELS 3 Zrotation Xrotation Yrotation
                JOINT rMid2
                {
                  OFFSET -3.10165 -0.590103 1.0647
                  CHANNELS 3 Zrotation Xrotation Yrotation
                  End Site
                  {
                    OFFSET -2.48547 -0.328903 0.83742
                  }
                }
              }
              JOINT rRing1
              {
                OFFSET -8.82822 0.546677 1.51678
                CHANNELS 3 Zrotation Xrotation Yrotation
                JOINT rRing2
                {
                  OFFSET -2.60934 -0.819778 -0.0198488
                  CHANNELS 3 Zrotation Xrotation Yrotation
                  End Site
                  {
                    OFFSET -2.33842 -0.294052 0.168128
                  }
                }
              }
              JOINT rPinky1
              {
                OFFSET -8.27202 -0.0477905 -0.4584
                CHANNELS 3 Zrotation Xrotation Yrotation
                JOINT rPinky2
                {
                  OFFSET -1.82734 -0.647385 -0.700984
                  CHANNELS 3 Zrotation Xrotation Yrotation
                  End Site
                  {
                    OFFSET -1.69225 -0.51767 -0.607171
                  }
                }
              }
            }
          }
        }
      }
      JOINT lCollar
      {
        OFFSET 2.68224 19.2634 -4.8768
        CHANNELS 3 Zrotation Xrotation Yrotation
        JOINT lShldr
        {
          OFFSET 8.77824 -1.95073 1.46304
          CHANNELS 3 Zrotation Xrotation Yrotation
          JOINT lForeArm
          {
            OFFSET 28.1742 -1.7115 0.48768
            CHANNELS 3 Zrotation Xrotation Yrotation
            JOINT lHand
            {
              OFFSET 22.5879 0.773209 7.07136
              CHANNELS 3 Zrotation Xrotation Yrotation
              JOINT lThumb1
              {
                OFFSET 1.2192 -0.487915 3.41376
                CHANNELS 3 Zrotation Xrotation Yrotation
                JOINT lThumb2
                {
                  OFFSET 3.37035 -0.52449 3.41376
                  CHANNELS 3 Zrotation Xrotation Yrotation
                  End Site
                  {
                    OFFSET 1.78271 -1.18214 1.43049
                  }
                }
              }
              JOINT lIndex1
              {
                OFFSET 7.75947 0.938293 5.60832
                CHANNELS 3 Zrotation Xrotation Yrotation
                JOINT lIndex2
                {
                  OFFSET 2.54057 -0.884171 1.56538
                  CHANNELS 3 Zrotation Xrotation Yrotation
                  End Site
                  {
                    OFFSET 1.62519 -0.234802 1.16502
                  }
                }
              }
              JOINT lMid1
              {
                OFFSET 8.24714 1.18213 3.41376
                CHANNELS 3 Zrotation Xrotation Yrotation
                JOINT lMid2
                {
                  OFFSET 3.10165 -0.590103 1.0647
                  CHANNELS 3 Zrotation Xrotation Yrotation
                  End Site
                  {
                    OFFSET 2.48547 -0.328903 0.83742
                  }
                }
              }
              JOINT lRing1
              {
                OFFSET 8.82822 0.546677 1.51678
                CHANNELS 3 Zrotation Xrotation Yrotation
                JOINT lRing2
                {
                  OFFSET 2.60934 -0.819778 -0.0198488
                  CHANNELS 3 Zrotation Xrotation Yrotation
                  End Site
                  {
                    OFFSET 2.33842 -0.294052 0.168128
                  }
                }
              }
              JOINT lPinky1
              {
                OFFSET 8.27202 -0.0477905 -0.4584
                CHANNELS 3 Zrotation Xrotation Yrotation
                JOINT lPinky2
                {
                  OFFSET 1.82734 -0.647385 -0.700984
                  CHANNELS 3 Zrotation Xrotation Yrotation
                  End Site
                  {
                    OFFSET 1.69225 -0.51767 -0.607171
                  }
                }
              }
            }
          }
        }
      }
    }
  }
  JOINT rButtock
  {
    OFFSET -8.77824 4.35084 1.2192
    CHANNELS 3 Zrotation Xrotation Yrotation
    JOINT rThigh
    {
      OFFSET 0 -1.70687 -2.19456
      CHANNELS 3 Zrotation Xrotation Yrotation
      JOINT rShin
      {
        OFFSET 0 -36.8199 0.73152
        CHANNELS 3 Zrotation Xrotation Yrotation
        JOINT rFoot
        {
          OFFSET 0.73152 -45.1104 -5.12064
          CHANNELS 3 Zrotation Xrotation Yrotation
          End Site
          {
            OFFSET -1.1221 -3.69964 12.103
          }
        }
      }
    }
  }
  JOINT lButtock
  {
    OFFSET 8.77824 4.35084 1.2192
    CHANNELS 3 Zrotation Xrotation Yrotation
    JOINT lThigh
    {
      OFFSET 0 -1.70687 -2.19456
      CHANNELS 3 Zrotation Xrotation Yrotation
      JOINT lShin
      {
        OFFSET 0 -36.8199 0.73152
        CHANNELS 3 Zrotation Xrotation Yrotation
        JOINT lFoot
        {
          OFFSET -0.73152 -45.1104 -5.12064
          CHANNELS 3 Zrotation Xrotation Yrotation
          End Site
          {
            OFFSET 1.1221 -3.69964 12.103
          }
        }
      }
    }
  }
}
MOTION
Frames:	7
Frame Time:	0.03333
-16.167 78.5822 -189.817 -2.8573 0.9714000000000002 3.5739000000000005 -2.15502 3.8489100000000005 4.15938 1.60417 -7.93414 1.19155 -5.72334 12.5411 -4.064079999999999 8.56573 -22.0421 -6.007380000000001 -0.0 0.0 0.0 -0.0 0.0 0.0 1.9532999999999996e-14 1.3756300000000004e-13 3.52284e-14 72.7169 26.6425 1.02535 -13.8277 -6.82457 25.2131 -0.0132459 3.2840299999999996 0.462052 -2.14899e-11 1.2304e-09 -8.690679999999999e-10 -4.03452e-11 2.13107e-09 -1.50224e-09 -2.14787e-11 1.2304e-09 -8.690739999999999e-10 7.730909999999999 5.47488 0.417314 -2.14843e-11 1.23039e-09 -8.690679999999999e-10 2.90554 0.965183 0.102902 -2.1483e-11 1.2304e-09 -8.69065e-10 10.278600000000003 0.731801 0.0259123 -2.14938e-11 1.2304e-09 -8.69055e-10 2.22167 -0.733487 -0.20892000000000002 1.94611e-14 1.37561e-13 3.50109e-14 -76.7688 30.3717 -8.93657 11.4802 -5.0907599999999995 -20.608100000000004 1.31967 30.7509 -4.79645 -1.41101e-09 -1.53196e-09 -2.2527300000000001e-10 -2.44348e-09 -2.6119600000000006e-09 -3.53915e-10 -1.41102e-09 -1.53196e-09 -2.2526499999999997e-10 -7.730909999999999 5.47488 -0.417314 -1.41101e-09 -1.53196e-09 -2.25272e-10 -2.90554 0.965183 -0.102902 -1.41101e-09 -1.5319700000000002e-09 -2.25277e-10 -10.278600000000003 0.731801 -0.0259123 -1.4109999999999998e-09 -1.53196e-09 -2.25288e-10 -2.22167 -0.733487 0.20892000000000002 -2.03217e-16 0.0 -3.88251e-19 -10.9718 -28.234199999999998 -9.22234 -0.621981 50.0531 0.947273 -0.10302099999999999 -22.0582 1.33888 2.03217e-16 0.0 3.88251e-19 14.949 -29.695599999999995 8.491250000000003 0.598994 50.57430000000001 -1.02224 0.825704 -19.5931 0.6149409999999998
-16.1641 78.5641 -189.808 -2.86 1.0031 3.5713 -2.15629 3.8572700000000006 4.12634 1.59944 -7.93269 1.1805900000000003 -5.74113 12.553 -4.0721 8.59728 -22.0504 -6.016269999999999 -0.0 0.0 0.0 -0.0 0.0 0.0 1.97486e-14 2.20102e-13 5.978449999999998e-14 72.7289 26.606099999999998 1.03614 -13.805499999999999 -6.81339 25.1726 -0.0134056 3.3038 0.464838 -1.8308399999999999e-10 1.77043e-09 -9.17775e-10 -3.2047599999999993e-10 3.06478e-09 -1.58441e-09 -1.83073e-10 1.77044e-09 -9.17778e-10 7.730909999999999 5.47488 0.417314 -1.8307700000000003e-10 1.77043e-09 -9.17775e-10 2.90554 0.965183 0.102902 -1.83076e-10 1.77044e-09 -9.177769999999999e-10 10.278600000000003 0.731801 0.0259123 -1.83088e-10 1.77044e-09 -9.17768e-10 2.22167 -0.733487 -0.20892000000000002 1.9612e-14 2.2010600000000005e-13 5.94366e-14 -76.7803 30.3376 -8.893860000000002 11.4888 -5.09649 -20.6247 1.3212300000000001 30.7669 -4.7995 -1.69148e-09 -1.80428e-09 -2.27543e-10 -2.92719e-09 -3.0749599999999995e-09 -3.51724e-10 -1.69148e-09 -1.80429e-09 -2.27527e-10 -7.730909999999999 5.47488 -0.417314 -1.69148e-09 -1.80429e-09 -2.2753999999999997e-10 -2.90554 0.965183 -0.102902 -1.69148e-09 -1.8043e-09 -2.2754199999999996e-10 -10.278600000000003 0.731801 -0.0259123 -1.6914700000000002e-09 -1.80429e-09 -2.27553e-10 -2.22167 -0.733487 0.20892000000000002 -2.03217e-16 0.0 -3.88251e-19 -10.9752 -28.2407 -9.23153 -0.623773 50.110200000000006 0.9501810000000003 -0.13086 -22.0788 1.2783899999999997 2.03217e-16 0.0 3.88251e-19 14.956100000000001 -29.707499999999996 8.49291 0.6007270000000001 50.6223 -1.02406 0.821071 -19.6226 0.6012809999999998
-16.1544 78.5465 -189.796 -2.8257000000000003 1.0015 3.549 -2.1771199999999995 3.86867 4.10622 1.60458 -7.927270000000001 1.1720699999999997 -5.75521 12.546599999999998 -4.07175 8.591369999999998 -22.0438 -6.01534 -0.0 0.0 0.0 -0.0 0.0 0.0 3.27469e-14 1.12739e-13 -6.2027e-15 72.7322 26.5824 1.0250500000000002 -13.8088 -6.80934 25.175099999999997 -0.0133918 3.30207 0.464596 4.81618e-10 3.9729e-10 -8.2226e-10 8.308359999999999e-10 6.90166e-10 -1.42393e-09 4.81624e-10 3.97292e-10 -8.22268e-10 7.730909999999999 5.47488 0.417314 4.816200000000001e-10 3.97295e-10 -8.2226e-10 2.90554 0.965183 0.102902 4.81625e-10 3.9729600000000003e-10 -8.22262e-10 10.278600000000003 0.731801 0.0259123 4.816129999999999e-10 3.97294e-10 -8.22254e-10 2.22167 -0.733487 -0.20892000000000002 3.27175e-14 1.12739e-13 -6.519519999999999e-15 -76.7995 30.302299999999995 -8.86742 11.4865 -5.09386 -20.6198 1.3204800000000003 30.7592 -4.79804 -1.15563e-09 -1.01668e-09 4.007640000000001e-11 -1.99638e-09 -1.7234300000000001e-09 9.857819999999999e-11 -1.15563e-09 -1.01668e-09 4.00919e-11 -7.730909999999999 5.47488 -0.417314 -1.15563e-09 -1.01669e-09 4.00786e-11 -2.90554 0.965183 -0.102902 -1.15563e-09 -1.01669e-09 4.00777e-11 -10.278600000000003 0.731801 -0.0259123 -1.15562e-09 -1.01669e-09 4.00682e-11 -2.22167 -0.733487 0.20892000000000002 -2.03217e-16 0.0 -3.88251e-19 -11.007 -28.247100000000003 -9.2433 -0.625432 50.1599 0.952336 -0.139226 -22.1009 1.25514 2.03217e-16 0.0 3.88251e-19 14.9447 -29.720099999999995 8.504289999999997 0.6026550000000002 50.676 -1.02643 0.830315 -19.6432 0.623272
-16.156 78.5251 -189.787 -2.839 1.0040000000000002 3.535 -2.17927 3.8868 4.099939999999999 1.60541 -7.92551 1.16826 -5.76477 12.540400000000002 -4.0677 8.57108 -22.0451 -6.01044 -0.0 0.0 0.0 -0.0 0.0 0.0 3.9223800000000006e-14 -6.3087e-15 -6.9028e-14 72.7343 26.566299999999995 1.0038999999999998 -13.8224 -6.81171 25.1972 -0.0133429 3.29607 0.463749 1.10659e-09 -1.0333299999999998e-09 -6.213849999999999e-10 1.91372e-09 -1.78414e-09 -1.08109e-09 1.10659e-09 -1.0333299999999998e-09 -6.21398e-10 7.730909999999999 5.47488 0.417314 1.10659e-09 -1.03332e-09 -6.213849999999999e-10 2.90554 0.965183 0.102902 1.1066e-09 -1.0333299999999998e-09 -6.213849999999999e-10 10.278600000000003 0.731801 0.0259123 1.10658e-09 -1.0333299999999998e-09 -6.213789999999999e-10 2.22167 -0.733487 -0.20892000000000002 3.929880000000001e-14 -6.31297e-15 -6.92765e-14 -76.822 30.252600000000005 -8.84506 11.4752 -5.08537 -20.5976 1.32081 30.762599999999996 -4.79869 -4.97531e-10 -1.25549e-10 2.99987e-10 -8.545240000000001e-10 -1.9667000000000003e-10 5.3244e-10 -4.97532e-10 -1.2555e-10 2.9999899999999994e-10 -7.730909999999999 5.47488 -0.417314 -4.9753e-10 -1.2555099999999998e-10 2.99987e-10 -2.90554 0.965183 -0.102902 -4.97532e-10 -1.2555200000000004e-10 2.9998800000000005e-10 -10.278600000000003 0.731801 -0.0259123 -4.975200000000001e-10 -1.25548e-10 2.9998e-10 -2.22167 -0.733487 0.20892000000000002 -2.03217e-16 0.0 -3.88251e-19 -11.0296 -28.2498 -9.25483 -0.626994 50.2048 0.953956 -0.13195300000000001 -22.1234 1.26481 2.03217e-16 0.0 3.88251e-19 14.9501 -29.729300000000002 8.52571 0.604782 50.7355 -1.02917 0.844237 -19.6628 0.656491
-16.1563 78.5038 -189.776 -2.8431 0.9830000000000001 3.5073 -2.11039 3.92157 4.11377 1.58547 -7.93586 1.17376 -5.76371 12.5583 -4.062060000000001 8.547070000000001 -22.090800000000005 -6.00614 -0.0 0.0 0.0 -0.0 0.0 0.0 2.2020200000000002e-14 4.69841e-14 -2.97432e-14 72.7412 26.5524 0.976249 -13.8369 -6.82221 25.2256 -0.013403300000000002 3.30352 0.464799 7.337310000000001e-10 -5.33975e-10 -3.51078e-10 1.26912e-09 -9.21915e-10 -6.105650000000001e-10 7.33735e-10 -5.33971e-10 -3.5109e-10 7.730909999999999 5.47488 0.417314 7.33734e-10 -5.33974e-10 -3.5107699999999997e-10 2.90554 0.965183 0.102902 7.33737e-10 -5.3397e-10 -3.51079e-10 10.278600000000003 0.731801 0.0259123 7.33726e-10 -5.33972e-10 -3.51076e-10 2.22167 -0.733487 -0.20892000000000002 2.20182e-14 4.69795e-14 -2.995750000000001e-14 -76.84050000000002 30.179 -8.82692 11.4514 -5.07039 -20.552600000000005 1.3251900000000003 30.8074 -4.80724 -4.0633e-10 -1.88165e-10 1.78809e-10 -6.98967e-10 -3.10277e-10 3.19777e-10 -4.06328e-10 -1.8816199999999997e-10 1.7882000000000003e-10 -7.730909999999999 5.47488 -0.417314 -4.06334e-10 -1.88173e-10 1.78805e-10 -2.90554 0.965183 -0.102902 -4.06334e-10 -1.88165e-10 1.78815e-10 -10.278600000000003 0.731801 -0.0259123 -4.06323e-10 -1.88166e-10 1.7880999999999997e-10 -2.22167 -0.733487 0.20892000000000002 -2.03217e-16 0.0 -3.88251e-19 -10.9964 -28.2379 -9.26229 -0.628399 50.2436 0.954991 -0.106658 -22.1448 1.31704 2.03217e-16 0.0 3.88251e-19 15.022 -29.731400000000004 8.56559 0.607357 50.8067 -1.03227 0.85292 -19.6884 0.675932
-16.1735 78.4865 -189.766 -2.9274 0.9557 3.4734000000000003 -2.03929 3.96038 4.13995 1.5639600000000002 -7.951509999999999 1.1833300000000002 -5.7641 12.5771 -4.05732 8.53479 -22.138000000000005 -6.00044 -0.0 0.0 0.0 -0.0 0.0 0.0 -5.17161e-15 9.50208e-14 1.91827e-14 72.7446 26.548 0.950766 -13.850800000000001 -6.83479 25.2545 -0.0135015 3.31558 0.4665 2.81883e-10 3.50911e-11 -2.50278e-11 4.87858e-10 6.08218e-11 -4.33072e-11 2.81893e-10 3.50986e-11 -2.50373e-11 7.730909999999999 5.47488 0.417314 2.81893e-10 3.508729999999999e-11 -2.50246e-11 2.90554 0.965183 0.102902 2.8189e-10 3.50972e-11 -2.5029399999999996e-11 10.278600000000003 0.731801 0.0259123 2.81879e-10 3.50986e-11 -2.50278e-11 2.22167 -0.733487 -0.20892000000000002 -5.26491e-15 9.50171e-14 1.8983899999999997e-14 -76.8616 30.0954 -8.8038 11.4247 -5.05332 -20.5019 1.33142 30.871 -4.819410000000001 -3.1444199999999997e-10 -2.58872e-10 4.8124999999999995e-11 -5.42316e-10 -4.38293e-10 9.04216e-11 -3.14438e-10 -2.58867e-10 4.8134500000000006e-11 -7.730909999999999 5.47488 -0.417314 -3.14451e-10 -2.58886e-10 4.81186e-11 -2.90554 0.965183 -0.102902 -3.1444900000000003e-10 -2.58871e-10 4.81337e-11 -10.278600000000003 0.731801 -0.0259123 -3.14438e-10 -2.58874e-10 4.81313e-11 -2.22167 -0.733487 0.20892000000000002 -2.03217e-16 0.0 -3.88251e-19 -10.965599999999998 -28.230100000000004 -9.2718 -0.629945 50.2852 0.95587 -0.0689505 -22.171999999999997 1.39448 2.03217e-16 0.0 3.88251e-19 15.0943 -29.724599999999995 8.60641 0.609844 50.8769 -1.03558 0.864761 -19.7193 0.702498
-16.1692 78.4669 -189.76 -2.8940000000000006 0.8986 3.4517 -2.0301 3.991760000000001 4.17517 1.55512 -7.96857 1.1931200000000002 -5.77396 12.5845 -4.05545 8.5569 -22.1562 -5.98856 -0.0 0.0 0.0 -0.0 0.0 0.0 -5.03801e-14 -4.88626e-14 -2.14315e-15 72.7386 26.5656 0.936944 -13.859300000000001 -6.844390000000001 25.2732 -0.0136036 3.32805 0.468259 6.63153e-10 -1.2572900000000001e-09 4.770819999999999e-10 1.1492700000000001e-09 -2.17456e-09 8.214249999999999e-10 6.63169e-10 -1.2572900000000001e-09 4.77081e-10 7.730909999999999 5.47488 0.417314 6.63164e-10 -1.2573e-09 4.770890000000002e-10 2.90554 0.965183 0.102902 6.631569999999999e-10 -1.2572900000000001e-09 4.770860000000001e-10 10.278600000000003 0.731801 0.0259123 6.6315e-10 -1.25728e-09 4.770939999999999e-10 2.22167 -0.733487 -0.20892000000000002 -5.04443e-14 -4.8864800000000006e-14 -2.3605700000000004e-15 -76.89100000000002 30.0096 -8.76355 11.402100000000003 -5.037049999999999 -20.458 1.3396 30.954099999999997 -4.835320000000001 3.8037999999999993e-10 7.17229e-10 3.5028399999999994e-10 6.64506e-10 1.23383e-09 5.95096e-10 3.80379e-10 7.172279999999999e-10 3.50292e-10 -7.730909999999999 5.47488 -0.417314 3.80374e-10 7.17216e-10 3.50282e-10 -2.90554 0.965183 -0.102902 3.80371e-10 7.172249999999999e-10 3.50285e-10 -10.278600000000003 0.731801 -0.0259123 3.80386e-10 7.17224e-10 3.50279e-10 -2.22167 -0.733487 0.20892000000000002 -2.03217e-16 0.0 -3.88251e-19 -10.995499999999998 -28.2417 -9.29378 -0.631982 50.3392 0.957028 -0.020320099999999997 -22.219199999999997 1.48749 2.03217e-16 0.0 3.88251e-19 15.101299999999998 -29.699999999999996 8.625859999999998 0.611639 50.9323 -1.0389399999999998 0.885879 -19.7627 0.751144
